<?xml version="1.0" standalone="no"?>
<!DOCTYPE svg PUBLIC "-//W3C//DTD SVG 20010904//EN"
 "http://www.w3.org/TR/2001/REC-SVG-20010904/DTD/svg10.dtd">
<svg version="1.0" xmlns="http://www.w3.org/2000/svg"
 width="897.000000pt" height="325.000000pt" viewBox="0 0 897.000000 325.000000"
 preserveAspectRatio="xMidYMid meet">

<g transform="translate(0.000000,325.000000) scale(0.100000,-0.100000)"
fill="#000000" stroke="none">
<path d="M3193 3226 c-182 -46 -327 -199 -378 -401 -49 -192 22 -382 181 -487
41 -27 64 -49 64 -61 0 -10 -18 -49 -39 -85 -22 -37 -84 -156 -138 -265 -54
-108 -103 -197 -109 -197 -7 0 -76 64 -155 143 -310 308 -559 444 -879 478
-128 14 -261 3 -430 -35 -77 -17 -109 -21 -118 -13 -25 20 -50 81 -92 227 -49
167 -78 248 -119 328 -66 130 -156 207 -258 218 -172 19 -328 -228 -448 -708
-55 -225 -208 -1103 -236 -1358 -23 -211 -1 -417 62 -585 36 -96 140 -193 289
-271 l55 -28 265 -7 c501 -13 929 -10 1051 7 271 37 568 138 796 268 l62 36
74 -93 c109 -137 156 -170 302 -217 98 -31 305 -39 429 -16 120 23 226 58 317
104 l75 39 110 -53 c156 -76 249 -99 399 -98 183 1 275 42 393 173 34 38 71
72 81 76 12 3 119 -33 283 -96 144 -56 299 -111 343 -121 112 -26 307 -33 509
-18 l171 12 180 -30 c292 -50 398 -62 543 -62 329 0 683 75 927 197 131 66
225 134 316 230 64 69 89 105 129 186 78 163 95 246 95 467 0 170 -2 194 -28
293 -42 161 -87 267 -184 434 l-24 41 98 0 c71 -1 120 5 176 21 297 81 556
347 615 630 14 68 14 90 4 151 -30 176 -151 308 -347 377 -75 26 -90 28 -230
27 -174 -1 -256 -18 -394 -84 -219 -105 -362 -265 -407 -456 -15 -66 -15 -164
1 -207 10 -24 -12 -22 -76 7 -148 68 -359 103 -511 86 -432 -49 -957 -444
-1242 -934 -60 -102 -77 -142 -144 -340 -27 -81 -54 -144 -64 -150 -20 -12
-71 10 -238 106 -155 89 -240 147 -240 165 0 21 37 65 240 283 375 403 435
512 343 621 -36 43 -96 69 -161 69 -45 0 -69 -9 -170 -61 -356 -186 -520 -269
-530 -269 -13 0 -22 43 -62 281 -70 417 -157 672 -268 785 -211 213 -437 17
-566 -491 -14 -55 -33 -145 -41 -200 -66 -410 -79 -475 -101 -482 -5 -1 -40
64 -79 144 -38 80 -96 187 -128 236 l-58 90 79 81 c144 147 204 269 204 414 0
208 -124 377 -321 438 -67 21 -187 26 -248 10z m5324 -402 c44 -33 58 -69 44
-116 -17 -56 -66 -105 -186 -188 -57 -39 -110 -79 -116 -87 -11 -13 -8 -14 22
-9 147 24 217 27 253 12 28 -12 36 -21 36 -41 0 -36 -16 -62 -48 -79 -67 -35
-366 -50 -422 -21 -33 17 -54 70 -44 111 19 80 77 147 217 248 76 56 95 87 62
100 -22 8 -63 -10 -113 -51 -31 -25 -57 -37 -88 -41 -42 -4 -44 -3 -44 20 0
50 72 112 175 150 71 26 212 22 252 -8z m-6592 -1208 c85 -50 182 -215 212
-361 37 -182 -42 -319 -216 -373 -43 -13 -92 -17 -216 -17 -219 0 -306 23
-373 100 -80 91 -15 256 172 439 118 115 303 236 360 236 11 0 38 -11 61 -24z
m5239 -36 c91 -56 196 -291 196 -440 0 -234 -197 -350 -510 -299 -183 29 -252
122 -204 275 45 144 262 389 411 465 47 24 68 24 107 -1z"/>
</g>
</svg>
